<svg width="1267" height="953" viewBox="0 0 1267 953" fill="none" xmlns="http://www.w3.org/2000/svg">
<g clip-path="url(#clip0_24_12)">
<path d="M623.413 634.165C623.63 633.955 623.831 633.752 624.02 633.557C623.877 633.468 623.749 633.355 623.634 633.222C623.566 633.529 623.494 633.837 623.404 634.153C623.407 634.156 623.41 634.16 623.413 634.165Z" fill="#FEFEFE"/>
<path d="M528.203 448.574C528.181 448.703 528.147 448.815 528.118 448.936C528.696 448.516 529.277 448.096 529.857 447.674C529.805 447.695 529.756 447.721 529.704 447.742C529.161 447.955 528.27 448.188 528.203 448.574Z" fill="#FEFEFE"/>
<path d="M222.681 316.993C223.943 317.667 224.756 316.29 225.712 315.581C229.262 312.948 236.46 315.056 238.474 319.265C238.813 319.974 239.354 321.089 239.1 321.512C237.295 324.529 239.191 326.888 240.11 329.615C240.666 331.261 240.962 332.055 242.607 332.055C244.552 332.054 245.546 330.728 245.098 329.082C244.229 325.886 246.143 324.94 248.035 324.251C253.747 322.169 258.649 318.23 264.739 316.887C266.836 316.425 268.142 316.38 269.365 318.092C271.41 320.958 273.686 320.716 276.46 319.765C282.097 317.831 283.319 318.718 284.112 325.101C284.525 328.422 284.507 331.788 284.654 335.134C284.734 336.936 284.035 338.164 282.388 338.708C280.544 339.317 279.84 340.885 280.204 342.792C281.136 347.669 279.86 352.314 279.674 357.068C279.404 363.961 284.139 368.152 290.345 366.455C293.916 365.478 297.166 367.756 297.897 372.597C298.771 378.386 298.234 384.258 301.811 389.65C303.184 391.719 302.647 395.259 302.869 398.135C303.065 400.669 301.823 401.923 299.527 402.051C299.419 402.511 299.144 403.003 299.23 403.425C300.456 409.419 298 412.495 293.151 415.119C288.852 417.445 286.517 417.62 283.981 412.852C282.608 410.271 279.38 409.981 277.283 412.643C274.4 416.304 272.079 420.433 269.95 424.681C268.909 426.758 268.395 428.507 270.583 430.501C271.628 431.453 271.732 433.267 271.521 435.021C270.802 441.009 272.826 443.903 278.061 445.483C280.155 446.114 281.748 448.031 284.138 448.404C285.654 448.641 285.67 450.538 284.749 451.924C282.972 454.6 281.329 457.434 278.686 459.231C277.513 460.028 276.895 461.081 276.225 462.362C270.992 472.363 271.539 474.519 280.714 481.282C286.752 485.732 293.099 489.882 296.926 497.05C297.361 497.863 298.057 498.681 298.812 499.119C301.782 500.845 304.189 503.608 302.869 506.85C301.398 510.461 297.436 511.286 293.85 511.648C292.288 511.805 291.864 510.413 291.308 508.868C289.577 504.065 287.481 499.388 282.368 497.578C280.858 497.044 280.486 495.737 279.988 494.3C278.428 489.797 275.312 488.916 272.421 492.172C269.387 495.591 266.194 496.674 262.236 493.383C260.592 492.016 258.909 490.851 258.023 494.243C257.331 496.888 254.867 495.726 253.169 496.302C247.169 498.338 241.584 496.82 236.464 493.256C233.39 491.115 230.404 491.958 227.466 492.051C224.811 492.134 224.625 495.506 226.243 497.996C228.796 501.926 233.179 501.358 236.247 503.822C236.827 504.288 237.207 503.902 237.706 503.418C241.829 499.417 241.849 499.439 246.309 504.935C246.778 502.725 246.388 499.628 248.794 499.627C251.935 499.626 254.439 502.595 255.859 504.881C259.17 510.213 262.199 515.732 265.717 520.966C267.453 523.549 268.047 526.966 271.637 527.529C271.9 527.57 272.345 527.861 272.358 528.048C272.907 535.773 279.189 532.318 282.638 534.171C285.28 535.59 288.527 536.05 290.189 538.882C291.717 541.486 293.938 540.311 295.712 541.202C303.86 545.298 312.184 548.924 320.325 553.061C325.875 555.881 331.642 558.563 337.811 559.45C339.38 559.676 341.002 559.804 340.607 562.189C340.217 564.542 339.358 567.712 340.775 569.045C342.634 570.791 345.643 571.343 348.232 571.891C355.173 573.36 361.667 576.061 368.015 579.555C371.052 581.227 374.445 582.155 377.487 584.124C378.37 582.401 378.437 580.791 378.364 578.969C378.052 571.204 384.526 565.189 391.568 566.969C394.301 567.66 394.99 564.793 397.412 564.656C401.206 564.441 405.06 564.192 408.878 562.517C412.481 560.937 416.762 563.843 420.263 566.086C424.832 569.014 423.903 568.871 425.765 563.929C427.345 559.738 425.77 558.563 423.198 556.513C420.917 554.694 419.147 552.131 416.986 550.104C415.815 549.006 414.886 547.249 415.363 546.371C417.689 542.088 414.663 539.764 412.56 537.036C411.223 535.301 409.936 534.673 411.882 531.484C413.676 528.544 415.743 523.956 414.507 519.143C413.727 516.106 414.111 513.3 418.174 513.686C419.558 513.818 420.951 513.249 421.601 511.918C423.929 507.147 427.759 504.03 431.56 500.805C432.848 499.713 432.269 498.53 430.591 498.224C428.394 497.824 426.308 496.852 423.971 497.122C422.234 497.322 420.177 496.712 419.082 495.193C418.279 494.08 418.036 492.127 418.955 490.692C419.993 489.072 421.621 489.745 423.056 489.948C424.736 490.187 426.555 492.15 428.045 490.366C429.945 488.092 432.026 485.509 431.979 482.335C431.945 479.969 430.33 477.717 427.626 477.245C423.306 476.492 422.221 474.023 424.617 470.075C426.365 467.196 427.712 464.412 427.824 460.632C427.923 457.316 427.115 451.412 433.648 454.359C435.974 450.921 439.065 454.243 441.73 453.679C442.755 453.462 443.978 453.731 444.551 454.807C446.875 459.175 449.496 456.346 451.418 455.079C456.927 451.447 463.303 451.011 469.407 450.026C472.743 449.488 476.126 452.943 480.008 452.566C484.693 452.111 489.582 451.496 493.228 456.364C493.801 457.129 494.68 457.041 495.283 456.657C499.346 454.07 504.519 457.403 508.462 454.304C514.429 458.186 518.077 451.166 523.245 451.268C523.677 451.277 524.415 451.188 524.486 450.946C526.35 444.627 533.414 445.1 536.523 440.407C537 439.687 538.304 439.223 537.725 438.214C535.725 434.735 536.89 431.436 536.823 427.948C536.704 421.731 539.315 417.069 541.618 412.708C545.368 405.606 545.53 397.969 543.821 391.023C542.781 386.797 543.016 385.177 545.383 382.587C548.294 379.402 547.124 375.897 542.856 374.004C542.037 373.641 541.212 373.294 540.389 372.94C536.309 373.89 533.178 369.086 528.952 370.295C528.001 370.567 527.525 368.875 527.13 367.795C525.502 363.341 521.715 361.788 518.05 360.916C515.503 360.31 514.301 359.436 514.074 356.759C513.885 354.535 513.102 352.521 510.958 351.8C509.093 351.173 508.952 350.082 508.875 348.215C508.734 344.765 506.996 340.935 503.743 341.506C499.481 342.256 496.967 338.791 496.257 336.845C494.043 330.783 490.792 330.314 486.019 331.813C483.551 332.588 482.771 330.527 483.192 328.458C484.203 323.495 483.163 321.868 478.482 321.792C477.34 321.774 476.073 322.871 475.082 321.697C470.422 316.18 464.649 319.226 459.371 318.576C458.74 318.498 457.796 318.956 457.443 319.508C454.886 323.502 452.082 320.739 450.026 319.029C448.047 317.383 445.836 316.18 443.741 315.432C441.455 314.615 439.414 316.986 437.454 318.462C435.721 313.07 433.845 311.576 429.99 312.825C428.222 313.398 426.438 314.195 425.251 316.012C424.118 317.747 421.542 318.621 420.737 316.996C418.997 313.479 416.853 313.525 414.057 314.118C413.205 314.299 412.236 313.765 411.789 312.796C410.162 309.272 407.372 308.23 403.97 308.464C406.114 303 402.97 297.549 397.518 296.827C395.075 296.504 394.012 300.074 392.249 299.515C390.653 299.008 390.742 295.024 387.858 295.242C385.585 295.415 384.298 293.911 382.92 292.324C380.986 290.098 378.746 288.179 376.66 286.155C374.37 283.933 371.107 282.027 368.866 286.507C368.534 287.169 367.863 288.376 367.397 287.62C364.97 283.694 360.348 285.982 357.743 283.146C353.527 278.558 347.869 280.844 343.007 278.978C340.896 278.168 337.294 278.928 334.592 277.911C332.031 276.947 330.114 277.084 328.011 278.693C325.703 280.458 324.355 279.298 324.302 276.424C324.271 274.774 323.74 273.254 324.395 271.395C326.06 266.668 321.63 261.121 316.727 261.313C314.323 261.407 310.364 256.959 309.74 254.39C308.649 249.896 309.342 244.885 305.692 241.059C302.732 237.957 299.01 237.02 296.606 239.037C293.001 242.063 290.054 247.717 284.054 242.676C283.441 242.161 282.245 241.968 281.564 242.83C279.385 245.586 276.75 244.652 274.291 243.378C272.239 242.314 270.451 242.333 268.281 242.718C264.431 243.401 259.875 244.861 256.65 243.303C251.62 240.873 246.534 240.96 241.53 239.679C236.976 238.513 236.065 239.375 236.083 244.351C230.011 243.483 229.534 243.796 229.236 248.834C228.961 253.497 226.484 254.921 222.631 252.204C220.487 250.692 218.214 249.941 215.914 249.599C211.775 248.984 209.346 251.752 210.325 255.699C211.983 262.386 214.511 268.965 215.324 275.719C215.904 280.53 217.499 285.711 213.804 290.691C211.335 294.02 207.915 293.947 205.279 296.033C203.955 297.082 202.385 297.693 202.381 299.754C202.376 301.576 203.464 302.726 204.957 303.439C208.606 305.181 209.353 308.353 208.166 311.802C207.458 313.859 208.208 313.965 209.564 314.165L209.565 314.164C213.819 315.85 218.477 314.746 222.681 316.993Z" fill="#9A6EE2"/>
<path d="M1166.43 430.137C1162.64 428.662 1158.64 430.011 1155.49 429.168C1149.87 427.666 1145.23 427.179 1140.69 430.773C1139.83 431.45 1139.21 431.385 1138.3 430.827C1134.93 428.744 1131.57 428.556 1128.18 430.492C1126.53 431.433 1125.13 431.748 1123.83 429.182C1122.56 426.67 1117.24 426.119 1117.06 428.072C1116.61 433.044 1112.58 436.408 1112.64 441.229C1112.68 445.029 1111.17 447.896 1109.89 451.023C1109 453.192 1106.64 454.035 1105.56 452.871C1100.88 447.833 1098.27 451.672 1095.23 454.964C1094.73 454.085 1094.38 453.412 1093.98 452.772C1091 447.979 1087.84 447.801 1084.79 452.308C1084.34 452.972 1084 453.564 1083.15 453.623C1079.66 453.864 1077.36 456.268 1075.18 458.828C1072.19 454.361 1070.31 453.254 1068.53 455.387C1066.77 457.499 1063.93 458.113 1062.7 460.937C1062 462.556 1060.33 463.067 1058.49 462.389C1052.12 460.042 1050.69 460.445 1046.7 465.543C1044.53 468.302 1035.56 469.764 1034.12 466.837C1032.44 463.412 1029.68 461.734 1027.5 459.291C1024.08 455.47 1019.32 451.018 1014.82 453.272C1007.6 456.884 1003.18 450.588 997.658 448.782C994.709 447.818 992.753 445.679 989.946 448.712C988.049 450.76 981.022 448.63 980.888 446.259C980.622 441.528 978.04 439.45 974.123 438.941C969.103 438.29 964.942 440.579 963.718 444.658C962.797 447.734 962.202 447.995 960.168 445.104C958.492 442.72 955.642 441.8 952.923 443.073C950.253 444.323 950.934 446.821 951.44 449.288C951.683 450.469 952.497 451.851 951.634 452.984C948.303 457.354 950.021 462.668 949.719 467.602C958.684 470.943 962.492 476.598 963.032 487.574C963.135 489.669 963.1 490.933 965.504 492.336C968.311 493.975 968.738 498.457 968.812 501.633C968.917 506.164 968.548 510.865 967.99 515.266C967.393 519.978 966.921 525.723 960.42 527.35C956.182 528.411 953.712 533.647 952.504 537.791C950.415 544.955 947.302 551.21 943.322 557.158C939.672 562.612 940.29 574.884 944.396 580.17C946.456 582.823 946.77 585.178 944.778 587.825C944.207 588.584 943.35 589.753 944.411 590.802C945.471 591.85 946.463 591.305 947.574 590.521C951.751 587.568 958.549 588.606 962.818 592.614C963.242 593.012 963.891 593.192 964.462 593.334C966.473 593.834 969.639 594.176 969.295 596.524C968.9 599.224 970.207 603.063 966.401 604.763C964.414 605.651 963.652 607.86 967.16 608.528C967.586 608.61 968.293 608.822 968.353 609.087C969.986 616.285 976.726 621.869 974.855 630.156C974.563 631.452 973.9 632.788 972.557 632.636C967.889 632.111 966.574 635.727 965.077 639.203C964.11 641.446 963.244 643.742 961.613 645.565C961.134 646.101 960.764 647.047 961.665 647.589C962.057 647.826 963.032 647.685 963.251 647.341C965.925 643.137 970.248 644.001 974.132 643.598C975.786 643.426 977.258 643.734 977.142 640.912C977.017 637.845 979.429 637.061 981.757 637.258C986.702 637.675 991.714 638.085 995.854 641.883C996.545 642.517 997.315 643.618 997.997 643.603C1002.26 643.505 1005.8 643.784 1003.88 650.165C1003.69 650.815 1005.11 650.409 1005.77 650.479C1007.31 650.641 1008.93 651.668 1008.4 653.076C1006.98 656.777 1010.17 658.478 1011.28 660.896C1012.67 663.914 1017.25 663.906 1020.42 661.414C1020.86 661.071 1021.32 659.941 1021.36 659.967C1025.45 662.542 1028.52 656.856 1030.14 657.561C1035.76 660.004 1038.58 656.126 1042.29 653.942C1042.75 653.67 1043.43 653.562 1043.95 653.69C1048.38 654.773 1050.78 652.594 1050.51 647.499C1050.43 645.997 1050.16 644.575 1051.6 643.733C1053.2 642.797 1053.9 644.824 1054.88 645.087C1058.51 646.058 1061.78 648.007 1065.26 649.294C1067.65 650.173 1070.24 654.632 1068.61 656.296C1064.76 660.233 1067.46 664.582 1068.68 667.845C1070.41 672.477 1068.6 674.875 1066.17 677.15C1064.18 679.004 1063.52 680.745 1064.61 683.353L1064.61 683.354C1070.61 682.407 1075.57 680.009 1076.82 672.506C1080.14 676.486 1081.14 681.012 1082.97 685.092C1086.01 691.883 1094.88 695.486 1101.15 693.02C1103.61 692.053 1107.21 688.356 1109.45 694.365C1110.02 695.893 1111.71 695.878 1113.06 695.723C1115.17 695.481 1117.16 695.841 1119.23 696.536C1123.15 697.853 1125.45 695.685 1124.44 691.386C1123.44 687.171 1125.41 685.099 1128.22 683.346C1129.1 682.8 1130.3 682.681 1130.98 681.958C1135.22 677.431 1139.78 678.436 1144.87 680.84C1147.81 682.229 1151.03 685.912 1154.27 683.133C1156.91 680.865 1160.94 680.166 1162.01 675.797C1162.5 673.783 1163.56 673.031 1165.94 674.41C1169.97 676.738 1173.31 674.957 1174.41 670.343C1175.08 667.557 1175.04 664.653 1179.16 666.782C1181.07 667.769 1183.03 666.479 1183.68 664.179C1184.59 660.986 1186.12 661.894 1187.83 663.42C1190.48 665.786 1193.07 668.289 1196.59 668.953C1198.41 669.295 1199.9 669.964 1201.12 671.746C1202.6 673.9 1204.75 673.661 1206.84 672.914C1208.64 672.273 1209.54 671.174 1209 668.975C1208.66 667.571 1209.52 666.675 1210.17 665.593C1213.54 660.048 1217.13 654.872 1212.48 647.235C1211.42 645.489 1211.01 640.849 1211.37 637.304C1212.07 630.38 1215.03 624.299 1214.52 616.652C1213.96 608.038 1212.83 600.206 1208.69 592.804C1207.34 590.398 1208.29 586.727 1205.74 585.392C1201.6 583.224 1201.6 577.703 1197.85 575.381C1197.04 574.876 1196.89 573.67 1197.05 572.724C1197.58 569.628 1196.97 567.719 1193.49 567.692C1192.47 567.684 1191.14 566.733 1190.44 565.797C1188.52 563.218 1186.86 561.2 1183.35 562.839C1181.78 563.574 1180.53 561.362 1179.74 559.744C1179.19 558.605 1179.04 556.61 1178.3 556.313C1173.21 554.268 1174.81 550.204 1175.15 546.517C1175.24 545.588 1175.6 544.779 1175.17 543.746C1171.94 536.003 1172.98 528.088 1174 520.335C1174.41 517.208 1174.04 515.064 1171.85 513.057C1169.17 510.598 1169 507.788 1171.19 505.243C1172.74 503.447 1172.69 502.046 1171.24 500.266C1168.32 496.681 1166.58 493.631 1166.62 487.842C1166.67 480.09 1169.99 473.707 1170.45 466.366C1170.62 463.588 1171.67 460.855 1170.91 457.971C1170.44 456.192 1170.32 454.498 1170.77 452.767C1171.95 448.231 1174.28 443.749 1170.69 438.999C1170.39 438.607 1170.37 437.681 1170.58 437.192C1172.55 432.572 1169.83 431.463 1166.43 430.137Z" fill="#FF6B6B"/>
<path d="M649.056 628.327C648.182 627.157 649.469 626.351 650.171 625.616C651.085 624.66 651.697 623.573 650.849 622.245C649.906 620.768 648.735 621.181 647.823 622.16C646.577 623.499 645.39 623.49 644.643 621.735C643.63 619.357 645.735 620.058 646.694 619.388C649.544 617.395 652.643 617.276 655.895 617.504C657.319 617.604 658.566 617.252 659.142 615.657C659.409 614.917 659.674 614.026 660.518 614.017C661.781 614.004 662.876 613.802 663.843 613.454C665.6 612.038 667.482 610.301 669.061 608.545C669.878 607.056 670.545 605.369 671.192 603.618C673.692 596.857 679.384 593.272 684.522 589.199C685.456 588.459 686.524 587.729 687.109 586.704C688.974 583.442 690.292 580.082 695.139 583.197C697.326 584.602 701.639 578.581 700.746 575.741C700.552 575.126 700.124 574.53 700.103 573.925C699.977 570.426 700.958 567.198 697.027 564.222C694.532 562.333 696.906 557.65 701.184 557.288C706.582 556.831 709.292 553.858 711.454 548.985C714.372 542.405 722.038 542.617 725.907 549.059C727.709 552.06 732.991 553.467 735.612 551.644C738.478 549.651 738.735 547.068 736.277 544.236C734.93 542.685 733.412 541.304 732.094 539.728C729.513 536.641 728.223 529.923 730.438 527.248C734.719 522.075 735.399 516.047 735.086 509.43C734.966 506.885 735.473 504.337 735.622 501.783C735.826 498.284 737.814 497.54 740.534 498.389C741.957 498.834 743.824 500.266 744.608 498.877C745.776 496.807 748.085 495.463 748.605 493.542C749.345 490.814 749.519 487 748.261 484.631C745.478 479.39 748.564 476.158 750.738 473.157C752.31 470.988 753.343 469.074 753.123 466.491C752.591 460.243 754.467 455.906 760.433 454.478C763.9 451.825 763.577 448.788 761.376 445.028C759.833 442.391 756.946 438.047 758.433 436.587C761.37 433.703 761.667 429.967 763.38 426.825C765.304 423.294 764.65 420.367 763.25 417.374C762.367 415.484 761.986 414.005 762.38 411.962C763.06 408.445 760.573 405.04 757.197 405.17C755.1 405.25 753.858 404.309 752.418 403.076C748.903 400.064 740.445 401.599 738.301 405.715C736.732 408.729 735.159 411.795 734.072 415.045C732.926 418.472 731.913 421.234 727.628 420.923C725.327 420.756 723.25 422.414 721.424 424.143C719.913 425.575 718.12 426.648 715.782 425.518C711.987 423.683 707.959 423.29 703.919 423.176C701.275 423.102 699.184 422.287 698.75 419.001C698.498 417.097 697.369 416.169 695.724 415.889C693.89 415.578 691.99 414.925 690.884 413.441C685.225 405.849 678.061 409.126 671.995 410.43C664.616 412.015 663.715 412.639 659.38 405.23C656.967 401.105 653.769 397.873 649.443 396.985C643.899 395.847 638.044 399.772 632.61 395.228C625.982 398.71 628.142 392.18 628.047 389.928C627.92 386.919 627.617 383.899 627.546 380.887C627.414 375.24 625.434 372.342 620.484 372.488C617.266 372.583 617.566 371.354 617.707 368.93C617.885 365.868 618.547 362.468 613.941 361.617C611.616 361.188 609.665 355.177 611.16 353.637C613.754 350.963 613.91 347.916 612.049 345C609.99 341.774 607.477 344.512 605.203 344.984C603.35 345.369 601.721 346.527 600.929 343.023C600.153 339.59 596.748 338.882 594.308 339.214C589.525 339.865 584.939 341.206 580.369 337.807C579.611 337.243 577.936 336.975 577.377 337.468C573.548 340.847 567.677 339.544 564.273 343.79C563.533 344.713 562.583 346.194 561.746 346.145C556.778 345.852 556.407 350.658 556.452 353.327C556.515 357.058 554.903 357.41 552.641 357.772C549.135 358.335 546.548 359.934 545.65 363.874C545.318 365.327 544.355 366.287 543.253 367.14C541.962 368.138 541.29 369.46 542.028 371.277L542.029 371.278C543.574 372.277 545.503 372.346 546.852 373.846C551.509 379.021 551.424 381.705 546.303 385.845C545.681 386.349 544.006 386.567 544.829 387.457C548.82 391.77 544.99 397.074 547.381 401.928C549.249 405.721 544.632 408.985 543.682 412.929C542.775 416.695 539.153 420.199 539.504 423.609C539.978 428.227 535.929 432.424 539.407 437.148C540.555 438.708 539.973 440.541 538.163 442.002C535.517 444.138 533.004 446.396 529.856 447.675C529.276 448.097 528.695 448.517 528.117 448.937C527.196 452.927 523.436 452.484 521.032 454.204C515.085 458.461 508.506 457.465 502.01 457.536C499.494 457.564 498.457 458.225 500.029 460.774C501.938 463.87 501.942 466.724 500.087 469.626C499.787 470.097 499.742 470.772 499.609 471.362C499.094 473.646 500.827 476.893 496.776 477.603C494.688 477.969 493.509 480.758 490.593 480.463C488.088 480.21 485.834 482.379 483.015 482.211C481.884 482.144 481.09 484.18 480.958 485.542C480.796 487.226 482.159 488.184 483.537 488.384C487.447 488.95 486.004 491.965 485.701 493.921C485.251 496.829 483.029 495.183 481.766 494.644C478.019 493.044 476.656 493.781 478.168 498.175C478.592 499.407 477.987 500.34 477.318 501.208C476.848 501.818 476.212 502.565 476.96 503.254C478.933 505.069 482.391 506.631 477.522 508.916C477.484 508.934 477.666 509.93 477.95 510.145C482.437 513.544 485.892 518.909 490.401 521.33C493.613 523.055 497.177 526.437 501.795 525.596C505.885 524.851 509.276 528.675 511.045 531.64C513.398 535.586 515.271 533.438 516.422 532.258C519.551 529.051 522.652 529.106 526.176 531.421C527.338 532.185 528.511 532.981 529.526 533.95C534.38 538.586 539.68 538.501 544.891 535.908C548.723 534.002 550.3 538.07 552.523 539.416C556.004 541.522 558.305 543.415 562.914 542.138C565.833 541.329 569.684 540.961 573.164 540.931C575.407 540.911 576.22 543.391 577.841 544.417C580.534 546.121 578.55 547.452 578.039 549.081C577.156 551.898 577.188 554.34 580.811 555.256C582.422 555.664 584.803 556.033 584.793 558.53C584.783 560.822 583.503 562.799 581.445 563.594C578.719 564.646 576.509 567.306 572.816 565.436C570.685 564.357 569.945 567.261 569.653 569.004C569.322 570.979 566.052 572.68 568.062 574.23C569.726 575.512 572.678 575.053 575.171 574.229C579.664 572.746 583.96 569.225 588.932 570.959C592.738 572.287 595.629 573.689 598.657 569.556C599.676 568.164 603.242 569.257 605.259 568.957C610.221 568.219 614.062 572.357 618.792 571.788C620.555 571.576 621.821 571.143 623.051 569.898C624.688 568.243 626.56 567.065 628.963 568.648C629.996 569.329 630.93 569.022 631.923 568.571C635.95 566.742 640.059 568.023 644.074 569.064C646.283 569.637 647.188 571.571 646.423 573.979C645.41 577.169 644.806 580.395 645.325 583.862C645.429 584.558 645.062 585.939 644.782 585.967C639.68 586.481 637.436 593.237 631.653 592.371C630.123 592.142 628.199 591.937 628.255 595.206C628.308 598.298 625.175 597.813 623.458 597.443C619.759 596.646 616.561 597.043 614.067 599.947C612.681 601.56 610.841 599.736 609.268 601.1C610.809 603.351 611.908 606.005 615.297 604.745C615.841 604.543 617.099 604.966 617.318 605.449C619.249 609.717 622.284 614.49 622.279 618.389C622.273 623.235 624.896 627.466 623.632 633.223C623.747 633.356 623.875 633.47 624.018 633.558C625.326 632.204 625.975 631.256 626.38 631.379C632.127 633.129 635.803 630.605 638.625 625.605C639.388 624.252 641.056 624.824 642.321 625.535C643.717 626.32 642.898 627.06 642.599 628.182C641.705 631.542 645.146 636.852 648.474 637.742L648.473 637.743L648.474 637.742C648.92 637.233 649.365 636.724 649.809 636.215L649.81 636.215C649.77 633.582 651.007 630.94 649.056 628.327Z" fill="#9A6EE2"/>
<path d="M298.458 386.955C301.701 390.26 301.315 398.646 298.21 401.261C297.546 402.009 297.19 402.842 297.022 403.746C296.853 404.643 296.869 405.599 296.949 406.591C297.19 409.619 290.334 415.639 287.688 414.781C286.897 414.522 286.514 413.886 286.098 413.166C283.02 407.793 280.615 406.932 276.269 410.623C270.716 415.333 269.089 423.034 265.449 429.223C264.963 430.05 265.805 430.812 266.566 430.913C269.91 431.366 269.483 433.548 269.287 436.2C268.883 441.764 272.561 446.592 277.721 447.86C282.356 449.005 283.258 451.367 279.902 454.821C276.19 458.639 272.835 462.471 271.434 468.082C270.233 472.892 271.213 475.882 275.034 479.078C279.133 482.499 283.084 486.052 287.544 488.99C292.734 492.401 294.67 499.492 300.119 502.896C301.192 503.565 301.975 505.633 300.653 506.656C298.799 508.088 296.781 509.569 294.251 509.495C293.743 509.48 293.905 508.836 293.784 508.438C292.786 505.28 291.163 502.576 289.115 499.941C287.023 497.252 283.368 496.846 281.917 493.72C278.819 487.022 275.643 486.326 270.45 491.281C268.986 492.672 267.411 494.29 264.941 492.612C261.744 490.446 258.158 486.681 256.037 493.549C255.971 493.765 255.588 493.93 255.325 493.971C248.99 494.972 242.851 495.843 236.814 491.175C231.896 487.383 222.396 490.228 219.781 495.516C219.041 497.004 219.823 497.63 221.052 497.802C223.778 498.19 225.566 500.051 227.469 502.054C230.176 504.909 234.34 504.515 237.355 506.986C237.971 507.488 239.152 506.508 239.353 505.569C240.245 501.328 241.48 501.592 243.53 505.08C244.614 506.924 246.957 508.278 248.481 507.732C250.219 507.117 248.417 504.611 248.654 502.968C248.706 502.578 249.056 502.242 249.306 501.82C251.188 504.425 254.294 505.224 255.83 508.302C256.591 509.813 255.363 511.268 256.862 512.695C261.363 516.965 263.95 522.816 267.257 528.064C268.016 529.264 268.655 530.701 268.252 532.175C265.459 542.348 259.862 551.034 255.802 560.535C252.912 567.277 247.955 572.906 249.197 581.268C244.874 582.955 242.648 580.386 241.171 575.89C239.343 578.718 237.267 578.917 234.865 577.194C233.68 576.349 232.352 576.123 230.975 576.274C230.384 576.34 229.795 576.413 229.205 576.433C226.38 576.534 226.221 571.4 223.801 572.336C221.144 573.366 219.291 572.687 216.842 571.771C212.682 570.231 208.237 569.659 205.316 565.384C205.108 565.073 204.188 565.112 203.677 565.251C198.37 566.728 194.727 563.685 191.882 559.377C190.335 557.036 188.633 557.456 186.766 557.687C182.809 558.18 179.034 558.414 177.132 553.213C176.452 551.357 174.965 552.238 174.112 552.769C172.562 553.732 171.221 555.131 172.4 557.46C174.054 560.733 175.572 564.113 177.504 567.194C179.048 569.641 178.919 571.872 177.587 573.844C176.007 576.172 174.568 573.85 173.018 573.072C169.654 571.367 166.361 569.888 164.228 566.077C163.2 564.238 160.966 564.438 158.973 565.522C154.381 568.026 147.102 565.657 144.609 560.57C143.46 558.219 142.251 557.373 140.098 557.698C138.998 557.863 137.853 557.781 137.137 556.914C131.646 550.271 122.394 552.734 116.763 546.346C115.569 544.994 114.289 545.589 113.111 547.171C110.537 550.615 107.09 550.612 104.692 546.672C100.837 540.335 97.7762 533.428 99.7705 525.739C100.749 521.952 100.767 517.857 102.773 514.354C103.81 512.557 102.825 510.25 102.352 508.228C100.767 501.483 102.264 495.583 105.773 490.183C107.268 487.877 109.201 486.868 111.893 487.642C112.562 487.833 113.46 488.389 113.906 487.506C114.414 486.508 113.654 485.777 113.042 485.009C108.742 479.634 109.03 475.734 113.958 472.039C115.674 470.755 115.869 464.993 113.66 463.24C109.434 459.891 108.055 454.152 103.506 450.966C100.048 448.543 100.811 441.238 102.877 437.567C105.523 432.873 110.04 428.946 108.96 422.203C108.572 419.808 110.597 418.306 112.039 416.735C115.558 412.901 115.114 410.712 111.646 406.439C108.799 402.926 106.608 398.726 104.525 394.612C103.138 391.879 103.294 388.907 105.669 386.738C106.761 385.742 107.125 384.588 107.15 383.014C107.22 378.131 110.836 376.158 114.166 375.026C119.746 373.121 123.906 367.698 123.251 361.163C122.281 351.48 123.674 348.876 135.052 347.042C136.517 346.809 137.387 346.366 138.176 344.997C139.679 342.392 140.429 339.107 143.414 337.701C143.827 337.508 144.219 336.626 144.161 336.098C143.245 327.612 148.808 322.654 152.58 316.742L153.158 315.825C153.589 315.191 154.187 314.632 154.311 313.985L155.913 311.433C156.131 309.643 154.798 307.426 153.034 305.347C153.74 303.424 154.842 301.571 155.281 299.624C155.636 298.056 156.776 296.213 158.671 296.419C160.696 296.637 161.64 298.431 162.048 300.503C162.167 301.108 162.428 301.696 162.705 302.531C165.674 300.52 169.345 300.683 171.901 298.064C172.733 297.213 174.343 296.645 175.221 297.55C178.397 300.787 183.492 301.853 184.791 307.189C184.856 307.464 184.935 307.721 185.022 307.964C185.488 309.253 186.268 310.177 187.485 310.888C188.985 311.778 190.768 313.27 190.171 315.006C188.759 319.136 191.792 320.034 193.902 321.494C196.175 323.071 197.869 321.396 199.947 320.475C201.443 319.817 202.739 318.86 204.033 317.917C205.327 316.974 206.611 316.04 208.077 315.41C210.439 316.884 213.006 317.293 215.585 317.607C218.17 317.918 220.769 318.147 223.218 319.248C223.886 319.552 225.316 319.183 225.687 318.597C227.824 315.199 230.908 316.977 233.382 317.542C235.862 318.106 238.194 319.887 236.316 323.489C235.588 324.882 238.345 333.011 239.611 333.796C242.574 335.619 246.859 333.34 247.405 329.407C247.607 327.952 247.302 326.773 249.053 326.142C252.966 324.747 256.689 322.879 260.35 320.841C262.619 319.579 265.909 317.704 267.772 319.857C270.849 323.416 273.694 323.092 276.928 321.681C280.375 320.181 282.29 322.559 282.032 325.299C281.628 329.619 285.145 335.396 279.134 338.126C278.192 338.548 278.113 339.985 278.251 341.154C278.932 346.941 277.423 352.58 277.76 358.284C278.106 364.21 282.903 371.912 290.555 368.737C292.745 367.828 293.931 368.911 294.952 370.725C296.462 373.393 296.558 376.353 296.157 379.177C295.726 382.26 296.129 384.571 298.458 386.955Z" fill="#FF6B6B"/>
<path d="M721.94 626.368C726.666 623.374 725.662 618.254 726.136 613.724C726.391 611.291 726.593 609.982 729.446 610.252C733.086 610.597 736.674 609.591 740.388 611.516C741.76 612.227 744.439 611.339 745.826 610.21C752.194 605.032 758.902 607.624 765.79 609.185C771.084 610.385 775.985 614.484 781.698 612.675C785.144 611.584 788.907 612.3 792.262 610.171C794.793 608.564 797.57 607.708 799.854 612.402C803.144 619.165 813.754 623.729 820.325 622.218C821.535 621.94 822.633 621.67 823.692 622.68C824.373 623.331 825.018 624.045 826.057 623.597C833.999 620.17 841.895 624.367 849.813 624.881C851.576 624.995 852.63 626.904 854.384 627.656C861.44 630.684 867.462 626.235 874.016 625.929C876.671 625.805 877.653 621.974 879.036 619.698C881.499 615.643 884.608 614.173 889.042 614.693C892.288 615.073 895.538 617.577 898.83 615.293C898.923 615.229 899.213 615.28 899.254 615.363C901.636 620.196 905.201 617.596 908.436 617.574C914.943 617.528 917.513 623.742 921.13 627.935C923.473 630.652 925.453 633.294 928.995 632.064C939.613 628.377 949.502 631.555 959.169 636.83C961.598 638.155 963.062 638.936 964.526 635.426C965.639 632.757 967.681 630.015 971.332 630.389C972.306 630.49 972.994 629.849 972.853 628.597C972.483 625.318 973.051 621.912 970.482 619.041C968.811 617.174 965.692 615.792 967.455 612.016C967.901 611.06 966.677 610.383 965.723 611.141C964.207 612.348 962.507 612.47 961.281 610.975C959.721 609.074 962.591 608.995 962.705 607.773C962.973 604.902 963.51 602.721 966.276 601.056C968.546 599.688 967.338 596.459 964.502 595.652C960.762 594.587 958.317 590.2 953.79 590.849C951.912 591.119 949.992 590.559 948.571 592.361C946.842 594.554 944.735 593.814 942.94 592.461C940.947 590.959 941.79 588.893 942.743 587.311C944.419 584.531 943.595 582.93 941.566 580.317C938.071 575.818 938.91 570.185 939.33 564.721C939.95 556.645 945.61 551.442 948.014 544.393C949.824 539.089 951.338 533.508 955.063 529.202C956.048 528.063 956.677 526.389 958.106 525.927C965.129 523.657 966.067 518.036 965.899 510.943C965.792 506.399 967.245 501.878 965.676 497.244C965.471 496.636 965.545 495.599 965.205 495.416C958.278 491.698 961.799 484.042 959.224 478.629C957.409 474.813 952.615 470.4 948.699 470.609L948.699 470.608C947.034 471.895 945.518 473.064 945.532 475.825C945.55 479.321 943.677 480.266 940.76 478.462C935.326 475.101 929.269 474.541 923.38 473.26C922.26 473.016 920.752 472.948 919.927 473.562C916.709 475.958 916.072 473.49 915.7 470.944C915.013 466.247 910.259 462.73 911.938 457.274C912.164 456.537 910.859 455.023 910.047 454.084C908.501 452.296 906.914 450.616 905.789 448.42C905.013 446.904 903.805 445.231 901.817 446.14C900.18 446.89 899.914 448.246 899.946 450.347C900.005 454.272 897.591 459.107 895.605 460.07C891.022 462.293 890.182 464.041 893.209 468.355C893.609 468.924 893.571 469.896 893.614 470.684C893.839 474.758 895.178 478.015 898.008 481.21C902.334 486.091 901.098 490.408 895.453 491.787C892.763 492.445 889.901 492.426 887.126 491.36C885.496 490.734 884.232 489.479 884.999 487.772C887.821 481.491 883.799 479.558 879.527 477.698C876.848 476.532 873.353 474.54 873.032 472.31C872.133 466.061 866.583 464.233 864.222 459.707C862.25 455.926 858.794 454.362 855.796 454.301C848.669 454.156 845.349 449.223 843.622 443.379C842.31 438.939 839.86 435.332 838.195 431.226C837.523 429.57 836.249 428.103 834.38 428.314C832.647 428.508 830.233 428.718 830.098 430.904C829.827 435.306 827.899 439.448 828.719 443.959C829.135 446.25 828.232 447.853 827.462 449.823C825.243 448.356 826.72 443.912 823.578 444.367C817.538 445.244 811.539 441.765 805.529 443.816C801.873 445.063 798.018 445.552 797.82 451.204C797.754 453.096 796.888 456.535 793.537 453.586C792.138 452.355 790.645 452.593 789.51 453.847C785.985 457.742 782.539 457.031 778.453 454.058C776.542 452.667 773.697 450.758 771.34 452.626C768.628 454.777 765.612 454.705 762.541 454.904C756.211 457.53 754.297 462.729 754.94 469.843C755.249 473.255 751.713 474.726 750.591 477.579C749.816 479.551 749.348 480.963 749.937 483.584C751.268 489.507 752.114 496.098 746.901 500.545C745.476 501.761 743.544 502.96 741.25 501.108C738.675 499.028 737.424 500.348 737.38 503.401C737.317 507.855 736.672 512.215 737.593 516.797C738.435 520.981 735.058 523.837 733.308 526.978C730.996 531.126 730.764 534.809 734.007 538.457C736.613 541.388 739.171 544.356 741.013 547.973C741.717 549.357 742.05 550.547 740.78 551.247C737.335 553.149 734.184 555.985 729.618 554.313C727.432 553.512 725.537 553.102 724.233 550.518C722.787 547.651 719.955 546.757 717.02 546.937C713.887 547.128 713.46 549.752 712.571 552.337C711.417 555.686 709.144 558.195 705.609 558.927C703.872 559.286 702.15 559.712 700.421 560.1C699.129 560.389 698.215 561.079 698.366 562.663C698.508 564.157 699.281 565.029 700.755 564.984C702.199 564.941 703.445 565.549 704.336 566.752C705.225 567.952 706.051 569.602 704.047 570.152C701.212 570.93 701.279 572.742 702.555 574.793C704.558 578.01 702.867 579.9 700.996 581.794C698.966 583.85 697.412 587.327 693.676 585.072C691.874 583.984 691.175 584.048 689.985 586.12C687.854 589.828 684.596 592.477 681.046 594.734C675.76 598.095 672.755 603.575 670.922 609.682C669.997 612.762 669.02 614.944 665.676 614.771C663.751 614.672 662.414 615.977 660.966 616.969C660.499 617.289 660.276 617.983 659.862 618.417C657.723 620.658 652.033 617.258 652.683 624.83C652.981 628.305 652.617 632.747 652.053 636.674L652.054 636.675C654.52 636.323 656.807 635.232 659.425 635.395C663.573 635.655 666.198 633.281 666.673 628.963C667.026 625.762 669.775 624.048 670.051 620.921C670.11 620.258 671.075 619.89 671.42 620.474C674.091 625.012 680.23 622.379 682.786 627.347C683.447 628.633 685.449 628.673 686.422 627.599C689.756 623.921 691.393 627.769 691.968 629.85C692.937 633.355 694.962 633.922 697.568 634.098C705.688 634.644 713.54 632.218 721.649 632.616C721.098 630.441 719.846 627.695 721.94 626.368Z" fill="#FF6B6B"/>
<path d="M669.062 608.545C667.483 610.3 665.601 612.038 663.844 613.453C666.241 612.59 667.827 610.797 669.062 608.545Z" fill="#989898"/>
<path d="M640.939 631.435C640.765 630.289 639.628 629.604 638.256 631.036C634.679 634.769 629.335 634.397 624.973 636.497C622.712 637.586 622.388 633.69 621.401 631.573C618.691 625.76 622.772 618.763 617.704 613.473C617.051 612.791 616.996 611.353 616.824 610.244C616.464 607.937 616.467 605.646 613.504 608.346C612.097 609.629 609.751 610.422 609.854 606.433C609.921 603.85 607.294 602.971 606.342 600.936C605.759 599.689 605.423 598.285 606.806 598.529C611.314 599.324 614.545 596.164 618.452 595.2C619.765 594.876 621.057 594.73 622.424 595.111C624.092 595.574 625.665 596.091 625.624 593.065C625.587 590.273 628.322 590.454 629.672 590.587C634.96 591.106 637.679 586.07 642.109 584.869C643.279 584.553 643.11 583.065 643.167 581.972C643.234 580.698 643.085 579.394 643.23 578.138C643.479 575.985 645.497 572.953 643.968 571.957C641.616 570.426 638.502 569.418 635.485 569.958C632.626 570.47 629.915 572.053 626.799 570.346C625.902 569.855 624.864 570.957 624.219 571.826C622.196 574.55 618.835 574.968 616.528 574.037C612.594 572.448 608.607 572.222 604.684 571.205C601.957 570.498 599.854 570.496 598.044 573.072C596.186 575.717 594.015 576.77 590.884 574.12C588.302 571.934 585.299 572.472 582.439 573.899C578.43 575.898 574.176 577.015 569.642 577.089C567.988 577.116 566.521 576.954 565.927 575.129C564.493 570.72 568.236 568.238 569.21 564.691C569.724 562.814 571.956 562.747 573.497 563.441C577.226 565.12 579.074 561.822 581.471 560.352C583.611 559.041 582.144 557.601 580.444 557.343C575.839 556.642 575.431 552.956 575.623 549.419C575.906 544.214 574.079 542.128 569.627 543.783C563.281 546.142 557.139 546.766 551.626 541.184C548.363 537.88 544.478 537.714 541.284 539.364C535.243 542.485 531.69 537.808 527.607 534.819C523.251 531.629 521.023 531.363 517.536 535.091C516.356 536.352 515.069 535.759 513.872 536.15C512.057 536.744 511.231 535.942 510.032 534.103C507.84 530.744 505.004 528.608 500.649 527.69C495.788 526.666 490.786 525.083 486.287 520.856C483.381 518.126 481.488 513.825 477.403 512.216C475.742 511.561 475.406 509.202 474.961 506.839C474.266 503.149 475.145 500.559 475.658 497.263C476.582 491.324 475.756 491.089 481.335 492.367C482.257 492.578 483.531 493.544 483.884 491.796C484.15 490.475 482.886 490.5 482.132 490.076C480.178 488.978 478.134 487.54 478.985 484.916C479.835 482.291 480.422 479.665 484.455 479.474C487.881 479.311 491.779 478.784 494.963 476.178C496.989 474.52 498.338 473.42 496.885 470.595C496.481 469.808 496.493 468.871 497.2 468.452C501.381 465.983 498.744 462.915 497.586 459.97C497.469 459.673 497.273 459.129 497.182 459.141C491.771 459.895 488.148 453.499 482.507 454.499C478.744 455.166 474.933 454.827 471.053 452.819C466.913 450.675 462.872 453.854 458.813 454.586C455.172 455.243 451.38 456.596 448.718 459.898C447.535 461.364 446.362 459.771 445.745 458.961C441.446 453.309 435.979 456.681 431.079 456.176C429.883 456.053 429.491 458.932 429.808 460.309C430.8 464.614 428.506 467.452 426.733 470.538C426.028 471.766 425.066 472.78 426.033 474.387C426.934 475.885 427.831 474.622 428.758 474.593C431.09 474.517 434.69 480.912 434.19 483.817C433.651 486.952 431.464 488.863 429.975 491.299C427.918 494.663 425.282 492.681 422.753 492.084C421.914 491.885 420.805 491.645 420.754 493.071C420.71 494.295 421.718 494.649 422.606 494.822C425.375 495.362 428.085 494.595 431.018 495.387C432.978 495.917 433.399 496.602 433.86 498.088C434.469 500.057 434.705 501.918 432.58 502.986C429.055 504.758 427.29 508.463 424.775 511.338C423.03 513.333 421.971 516.24 418.599 515.765C417.142 515.56 416.11 516.78 416.49 518.101C417.95 523.179 415.368 527.382 414.298 531.74C413.482 535.059 414.628 536.797 416.426 538.374C417.948 539.709 418.55 541.045 418.436 542.911C418.114 548.199 422.015 555.143 426.861 556.403C430.36 557.313 430.484 559.218 429.053 561.361C427.371 563.881 427.497 566.177 428.182 568.997C428.687 571.077 428.718 572.75 425.597 570.953C421.027 568.32 416.05 566.562 411.265 564.379C410.495 564.027 409.61 563.843 409.172 564.389C406.4 567.845 402.24 565.855 398.872 567.03C397.512 567.504 396.058 567.452 395.008 568.741C394.205 569.724 393.31 570.082 391.873 569.568C386.717 567.721 380.274 572.097 380.557 577.729C380.686 580.278 380.16 582.607 380.207 585.053C380.262 587.874 379.532 588.677 377.141 586.657C373.065 583.215 367.569 582.834 363.579 579.008C362.729 578.192 360.932 578.142 359.664 578.322C357.784 578.59 356.349 578.834 355.291 576.423C354.743 575.175 353.068 574.172 351.805 574.575C348.412 575.657 345.847 573.385 342.877 572.542C338.81 571.388 337.678 569.366 338.238 565.542C338.644 562.772 337.856 561.961 335.136 561.185C326.693 558.775 318.871 554.302 310.769 550.793C304.704 548.166 299.224 543.484 292.405 543.064C291.593 543.014 290.541 542.47 290.027 541.788C286.343 536.895 281.316 535.425 276.036 535.242C273.778 535.163 271.532 531.906 269.597 534.374C268.273 536.062 267.904 538.662 267.217 540.898C266.331 543.783 264.803 546.25 263.462 548.871C259.113 557.368 255.023 566.038 251.147 574.813C250.078 577.233 252.145 579.973 252.272 582.634C256.907 583.213 261.508 582.93 266.058 582.315C269.638 581.831 272.586 583.84 273.131 586.892C274.242 593.113 278.854 595.375 282.585 598.776C285.278 601.231 291.089 601.686 287.925 607.951C287.881 608.039 287.982 608.297 288.083 608.38C290.057 610.022 290.661 613.435 293.451 613.86C296.044 614.255 301.278 610.038 301.766 607.637C302.325 604.889 305.212 603.704 306.663 605.982C308.73 609.225 313.252 610.346 313.45 615.187C313.491 616.181 314.632 617.209 315.728 617.352C325.883 618.685 334.771 627.134 345.586 624.794C346.105 624.682 346.818 624.894 347.295 625.216C355.272 630.594 364.122 633.671 372.668 637.585C378.127 640.086 381.509 638.741 382.282 632.562C383.387 623.742 391.862 620.282 398.677 625.743C402.154 628.529 405.488 631.505 410.487 629.742C412.597 628.998 415.291 630.548 417.705 631.78C423.838 634.907 429.819 638.58 436.46 640.271C438.56 640.806 440.246 641.814 442.021 643.211C446.509 646.745 451.803 650.135 457.012 647.683C462.865 644.927 469.032 642.767 474.525 639.115C481.4 634.545 481.261 634.862 486.101 641.394C489.887 646.502 493.334 651.5 493.603 658.263C493.664 659.792 494.265 661.346 494.337 662.984C494.43 665.113 495.525 667.126 497.722 666.46C501.262 665.386 505.012 665.012 508.543 664.47C513.688 663.681 519.149 657.692 524.633 664.67C524.998 665.134 526.054 665.096 526.78 665.095C532.383 665.091 538.039 666.006 543.33 663.062C546.013 661.57 549.233 661.112 552.242 660.305C553.482 659.972 554.91 659.355 555.996 660.807C558.136 663.668 561.063 664.821 564.149 665.774C565.643 666.235 566.346 667.326 566.983 669.09C568.775 674.046 574.104 675.981 578.552 673.87C582.737 671.883 584.797 668.05 585.171 663.501C585.417 660.495 588.467 657.57 585.154 654.13C582.393 651.264 583.289 648.42 586.94 647.628C593.459 646.214 600.005 644.915 606.552 643.626C607.401 643.459 608.364 643.441 609.202 643.685C619.659 646.746 630.306 648.93 640.592 652.792C641.963 653.307 643.408 654.667 644.753 653.299C646.158 651.871 645.315 650.011 644.862 648.312C644.139 645.598 642.538 642.817 645.154 640.397C644.153 637.225 641.47 634.952 640.939 631.435Z" fill="#FF6B6B"/>
<path d="M623.396 634.18C623.402 634.175 623.407 634.17 623.413 634.164C623.41 634.16 623.406 634.156 623.404 634.153C623.401 634.162 623.399 634.17 623.396 634.18Z" fill="#989898"/>
<path d="M1065.77 674.616C1068.9 672.384 1066.64 668.419 1065.98 665.552C1065.13 661.897 1063.77 658.723 1066.48 655.423C1066.98 654.811 1067.72 651.379 1064.39 652.08C1063.97 652.168 1063.25 652.378 1063.16 652.22C1060.69 647.864 1055.83 648.899 1052.4 646.231C1053.73 651.479 1050.4 654.21 1047.9 657.362C1047.39 658.008 1046.45 658.392 1045.92 657.791C1043.02 654.524 1041.18 657.294 1039.12 658.756C1036.94 660.304 1034.89 662.444 1032 659.798C1031.4 659.248 1030.41 659.024 1030.04 659.863C1027.38 665.775 1021.02 662.254 1017.13 665.242C1016.17 665.985 1013.87 665.292 1012.39 664.654C1009.18 663.274 1005.74 656.467 1006.15 652.924C1000.74 653.252 1000.74 653.252 1002.25 645.97C999.241 646.943 996.763 645.86 994.649 643.666C991.638 640.542 987.673 640.477 984.043 639.461C981.295 638.691 978.97 639.283 978.766 643.089C978.655 645.167 977.762 645.951 975.579 645.86C971.344 645.684 966.951 645.172 963.927 649.605C962.216 652.113 960.187 648.681 958.191 648.959C955.002 649.402 952.593 646.89 949.808 645.794C948.96 645.461 948.178 644.747 948.547 643.568C948.861 642.564 949.606 642.19 950.614 642.188C952.969 642.183 954.965 643.327 956.929 644.597C958.584 645.667 959.684 645.503 960.268 643.348C960.712 641.705 961.683 640.484 959.256 639.184C949.554 633.986 939.81 630.242 929.157 634.175C926.382 635.199 923.617 634.382 921.818 631.871C919.504 628.64 916.649 626.06 914.095 623.136C911.029 619.626 909.026 619.236 905.152 621.58C903.203 622.759 901.225 620.915 899.756 619.552C895.629 615.723 883.536 616.22 880.944 621.072C877.507 627.509 871.954 628.717 865.834 630.234C859.573 631.786 854.639 628.983 848.933 627.414C841.796 625.451 834.237 624.402 826.374 625.137C819.158 625.811 810.003 628.033 803.868 619.27C802.066 616.695 798.914 615.835 797.438 612.576C796.264 609.984 793.902 611.913 792.374 612.633C785.467 615.891 778.695 615.881 771.145 613.477C764.874 611.48 758.545 607.828 751.574 609.743C750.212 610.118 749.377 611.165 748.353 611.451C744.616 612.496 741.349 615.199 736.677 612.571C731.438 609.625 727.879 613.14 728.403 619.487C728.645 622.415 729.319 625.759 725.002 626.183C723.789 626.302 722.858 627.805 722.827 629.41C722.79 631.367 723.986 632.244 725.565 632.707C725.566 632.708 725.568 632.708 725.568 632.708C729.718 631.205 734.122 632.001 738.395 631.617C739.37 631.529 740.138 631.923 740.832 632.63C750.611 642.605 755.687 654.099 752.146 668.445C751.035 672.944 752.934 675.916 757.324 676.606C760.133 677.047 762.966 677.985 765.681 678.169C770.209 678.476 775.772 681.483 778.737 674.936C779.064 674.213 779.953 674.598 780.271 675.046C784.167 680.523 789.321 679.585 794.474 679.089C796.603 678.885 798.855 679.125 798.654 682.547C798.552 684.282 799.465 684.911 800.853 685.703C803.759 687.36 808.564 686.627 808.585 692.367C808.586 692.69 809.508 693.272 810.039 693.359C813.601 693.937 817.601 693.37 819.415 690.649C821.194 687.979 823.357 687.834 825.575 687.096C828.638 686.076 830.422 686.426 829.549 690.932C828.362 697.05 834.631 702.65 840.49 701.467C843.932 700.773 847.551 700.68 851.095 700.795C853.201 700.864 854.482 700.216 856.143 698.882C858.947 696.63 860.231 692.018 863.604 691.449C869.81 690.402 873.105 686.08 876.394 681.288C880.809 674.857 886.442 671.67 894.271 674.347C897.918 675.594 900.293 677.648 900.638 682.125C900.931 685.945 901.633 689.774 902.45 693.536C903.704 699.304 908.512 703.246 913.789 704.551C917.235 705.402 921.144 705.866 923.533 709.933C924.906 712.271 926.637 711.34 928.306 709.598C931.073 706.71 932.374 702.214 936.566 700.838C937.049 700.679 937.584 699.502 937.487 698.881C936.788 694.386 939.367 693.202 942.595 691.92C946.355 690.425 955.065 691.379 957.738 694.566C959.608 696.794 961.344 697.015 962.988 695.031C964.297 693.451 964.822 693.511 966.432 695.024C969.15 697.576 972.563 696.76 974.168 693.32C976.171 689.03 980.269 688.775 983.527 688.862C989.493 689.021 995.644 690.584 1001.32 692.444C1006.86 694.26 1013.98 692.043 1017.97 699.031C1018.08 699.22 1018.53 699.188 1018.82 699.262C1025.81 701.021 1032.83 702.646 1039.77 704.602C1042.84 705.465 1045.16 705.46 1046 701.712C1046.35 700.168 1047.46 699.32 1048.57 699.762C1053.28 701.624 1055.3 697.997 1058.25 695.503C1061.31 692.909 1061.63 689.212 1062.95 685.873C1061.79 681.431 1061.58 677.61 1065.77 674.616Z" fill="#9A6EE2"/>
<path d="M642.601 628.181C642.899 627.058 643.718 626.319 642.323 625.534C641.059 624.823 639.39 624.251 638.626 625.604C635.804 630.604 632.128 633.128 626.381 631.378C625.976 631.255 625.328 632.203 624.02 633.557C623.831 633.752 623.63 633.955 623.413 634.165C623.407 634.17 623.402 634.175 623.396 634.181C623.399 634.171 623.401 634.162 623.403 634.152C623.494 633.837 623.566 633.528 623.633 633.222C624.897 627.464 622.274 623.234 622.28 618.387C622.285 614.489 619.25 609.715 617.319 605.448C617.101 604.965 615.843 604.541 615.298 604.743C611.91 606.003 610.81 603.349 609.269 601.098C610.842 599.735 612.682 601.558 614.068 599.945C616.562 597.042 619.76 596.644 623.459 597.441C625.177 597.811 628.311 598.297 628.257 595.204C628.201 591.936 630.124 592.14 631.655 592.37C637.436 593.236 639.682 586.479 644.784 585.965C645.063 585.937 645.431 584.556 645.326 583.861C644.808 580.394 645.412 577.168 646.425 573.978C647.19 571.57 646.284 569.636 644.075 569.063C640.06 568.021 635.952 566.741 631.924 568.569C630.932 569.02 629.998 569.327 628.964 568.646C626.561 567.063 624.689 568.241 623.053 569.896C621.822 571.141 620.556 571.574 618.793 571.786C614.064 572.356 610.222 568.217 605.26 568.955C603.244 569.255 599.677 568.163 598.658 569.554C595.63 573.687 592.739 572.285 588.933 570.957C583.962 569.224 579.666 572.745 575.172 574.228C572.679 575.051 569.726 575.51 568.063 574.228C566.053 572.679 569.323 570.978 569.654 569.003C569.947 567.259 570.687 564.355 572.817 565.434C576.51 567.304 578.721 564.645 581.447 563.592C583.504 562.798 584.784 560.821 584.794 558.529C584.805 556.031 582.423 555.662 580.812 555.255C577.189 554.338 577.157 551.896 578.041 549.079C578.551 547.451 580.536 546.119 577.842 544.415C576.221 543.389 575.408 540.909 573.165 540.929C569.686 540.96 565.834 541.327 562.915 542.136C558.306 543.414 556.005 541.521 552.524 539.414C550.301 538.069 548.724 534.001 544.893 535.906C539.682 538.499 534.382 538.584 529.527 533.949C528.512 532.979 527.339 532.183 526.177 531.419C522.654 529.103 519.552 529.049 516.423 532.256C515.272 533.436 513.399 535.584 511.046 531.639C509.278 528.673 505.887 524.849 501.796 525.594C497.179 526.435 493.614 523.053 490.402 521.328C485.893 518.907 482.438 513.543 477.951 510.143C477.667 509.928 477.485 508.932 477.523 508.914C482.392 506.629 478.934 505.067 476.962 503.252C476.213 502.563 476.85 501.817 477.319 501.207C477.988 500.338 478.593 499.405 478.169 498.174C476.657 493.78 478.02 493.042 481.768 494.642C483.031 495.182 485.252 496.827 485.703 493.92C486.006 491.964 487.448 488.948 483.538 488.382C482.16 488.183 480.797 487.224 480.96 485.54C481.092 484.178 481.885 482.142 483.016 482.21C485.835 482.378 488.089 480.208 490.594 480.462C493.51 480.757 494.69 477.968 496.777 477.601C500.828 476.891 499.095 473.645 499.611 471.361C499.744 470.77 499.788 470.095 500.089 469.624C501.943 466.723 501.94 463.868 500.031 460.772C498.459 458.223 499.496 457.562 502.011 457.535C508.508 457.464 515.086 458.459 521.033 454.202C523.437 452.482 527.197 452.926 528.118 448.936C528.146 448.815 528.18 448.703 528.203 448.573C528.271 448.187 529.161 447.954 529.703 447.741C529.756 447.721 529.805 447.695 529.857 447.673C533.005 446.394 535.518 444.136 538.164 442C539.975 440.539 540.556 438.706 539.408 437.147C535.93 432.423 539.979 428.225 539.505 423.608C539.155 420.197 542.777 416.693 543.684 412.927C544.633 408.983 549.25 405.719 547.382 401.927C544.992 397.072 548.821 391.768 544.831 387.456C544.007 386.565 545.682 386.348 546.305 385.844C551.425 381.703 551.51 379.02 546.854 373.844C545.504 372.344 543.575 372.276 542.031 371.276L542.03 371.276C541.868 372.267 541.184 372.664 540.393 372.939C541.215 373.293 542.04 373.639 542.859 374.003C547.128 375.896 548.297 379.401 545.386 382.586C543.02 385.176 542.784 386.796 543.824 391.022C545.533 397.967 545.371 405.605 541.621 412.707C539.318 417.069 536.708 421.73 536.826 427.947C536.893 431.435 535.728 434.734 537.728 438.213C538.308 439.222 537.003 439.686 536.526 440.406C533.417 445.1 526.353 444.626 524.49 450.945C524.418 451.188 523.679 451.276 523.249 451.267C518.081 451.165 514.433 458.185 508.465 454.303C504.522 457.402 499.349 454.069 495.287 456.656C494.683 457.041 493.805 457.129 493.231 456.363C489.585 451.495 484.696 452.11 480.011 452.565C476.129 452.942 472.746 449.487 469.411 450.025C463.307 451.01 456.931 451.446 451.421 455.078C449.5 456.345 446.879 459.174 444.554 454.806C443.981 453.73 442.758 453.461 441.734 453.678C439.069 454.243 435.978 450.921 433.652 454.358C427.118 451.411 427.926 457.315 427.828 460.631C427.716 464.411 426.368 467.195 424.621 470.074C422.224 474.022 423.309 476.491 427.63 477.244C430.334 477.716 431.948 479.969 431.983 482.334C432.029 485.509 429.948 488.092 428.049 490.365C426.558 492.149 424.74 490.186 423.059 489.948C421.625 489.744 419.996 489.071 418.959 490.691C418.04 492.126 418.282 494.079 419.085 495.192C420.181 496.711 422.237 497.321 423.974 497.121C426.311 496.852 428.398 497.824 430.595 498.224C432.273 498.529 432.852 499.712 431.564 500.805C427.762 504.029 423.932 507.146 421.604 511.917C420.954 513.249 419.561 513.817 418.178 513.685C414.115 513.299 413.73 516.104 414.51 519.142C415.746 523.955 413.68 528.543 411.886 531.483C409.939 534.672 411.227 535.3 412.563 537.035C414.666 539.763 417.693 542.087 415.366 546.37C414.89 547.248 415.818 549.005 416.989 550.103C419.151 552.13 420.921 554.693 423.202 556.512C425.773 558.562 427.348 559.737 425.768 563.928C423.906 568.869 424.836 569.013 420.266 566.085C416.766 563.843 412.485 560.936 408.882 562.516C405.063 564.191 401.21 564.44 397.415 564.655C394.993 564.792 394.305 567.66 391.572 566.968C384.53 565.188 378.056 571.203 378.367 578.968C378.44 580.791 378.373 582.4 377.49 584.123C374.448 582.154 371.055 581.227 368.019 579.554C361.671 576.06 355.176 573.36 348.235 571.89C345.646 571.342 342.638 570.791 340.779 569.044C339.361 567.711 340.221 564.541 340.61 562.188C341.005 559.804 339.384 559.675 337.814 559.449C331.645 558.562 325.879 555.88 320.329 553.06C312.187 548.924 303.863 545.297 295.715 541.201C293.942 540.31 291.721 541.485 290.192 538.881C288.53 536.049 285.283 535.589 282.642 534.17C279.192 532.317 272.91 535.773 272.362 528.048C272.348 527.86 271.903 527.569 271.64 527.528C268.05 526.965 267.456 523.548 265.721 520.965C262.202 515.731 259.173 510.212 255.862 504.88C254.443 502.594 251.938 499.625 248.797 499.627C246.392 499.628 246.781 502.724 246.312 504.934C241.852 499.438 241.833 499.415 237.709 503.417C237.211 503.9 236.829 504.286 236.25 503.821C233.183 501.357 228.799 501.925 226.246 497.995C224.629 495.505 224.815 492.133 227.47 492.05C230.408 491.958 233.393 491.115 236.468 493.255C241.588 496.82 247.172 498.337 253.173 496.301C254.871 495.726 257.334 496.888 258.026 494.242C258.913 490.85 260.596 492.015 262.24 493.382C266.197 496.672 269.39 495.59 272.425 492.171C275.315 488.915 278.432 489.797 279.991 494.299C280.489 495.736 280.861 497.043 282.371 497.577C287.485 499.387 289.58 504.064 291.311 508.867C291.868 510.412 292.291 511.804 293.853 511.647C297.439 511.285 301.402 510.459 302.872 506.849C304.192 503.608 301.785 500.844 298.815 499.118C298.061 498.68 297.364 497.862 296.929 497.049C293.103 489.881 286.756 485.731 280.718 481.281C271.543 474.518 270.995 472.362 276.228 462.361C276.899 461.08 277.516 460.027 278.689 459.23C281.332 457.433 282.975 454.599 284.753 451.923C285.674 450.537 285.657 448.639 284.142 448.403C281.752 448.03 280.158 446.113 278.064 445.482C272.829 443.902 270.805 441.008 271.525 435.02C271.736 433.266 271.632 431.452 270.586 430.5C268.399 428.507 268.912 426.757 269.953 424.68C272.082 420.433 274.404 416.303 277.287 412.642C279.383 409.98 282.611 410.27 283.984 412.851C286.52 417.619 288.855 417.444 293.155 415.118C298.003 412.495 300.459 409.418 299.234 403.425C299.147 403.003 299.423 402.51 299.53 402.05C299.092 401.787 298.653 401.525 298.214 401.263C296.875 402.749 296.8 404.613 296.955 406.589C297.192 409.62 290.339 415.638 287.691 414.778C286.9 414.522 286.515 413.885 286.102 413.165C283.025 407.794 280.619 406.935 276.27 410.623C270.719 415.33 269.092 423.034 265.453 429.225C264.968 430.051 265.81 430.812 266.569 430.915C269.911 431.369 269.485 433.547 269.291 436.199C268.884 441.764 272.565 446.591 277.727 447.862C282.36 449.003 283.259 451.363 279.904 454.82C276.195 458.64 272.842 462.471 271.438 468.08C270.235 472.892 271.213 475.883 275.037 479.077C279.135 482.499 283.085 486.051 287.548 488.987C292.738 492.403 294.672 499.492 300.123 502.895C301.194 503.563 301.977 505.632 300.658 506.654C298.801 508.09 296.785 509.568 294.252 509.497C293.744 509.483 293.91 508.838 293.784 508.439C292.786 505.28 291.165 502.577 289.119 499.943C287.026 497.249 283.371 496.848 281.921 493.717C278.821 487.024 275.643 486.329 270.451 491.281C268.99 492.674 267.416 494.29 264.942 492.611C261.748 490.444 258.161 486.68 256.039 493.55C255.973 493.763 255.587 493.928 255.326 493.969C248.989 494.971 242.855 495.84 236.815 491.178C231.899 487.385 222.399 490.225 219.782 495.515C219.043 497.007 219.824 497.627 221.053 497.801C223.783 498.189 225.57 500.049 227.471 502.053C230.177 504.906 234.342 504.517 237.358 506.982C237.974 507.485 239.157 506.506 239.354 505.567C240.246 501.325 241.482 501.594 243.531 505.078C244.616 506.923 246.96 508.277 248.485 507.733C250.224 507.113 248.421 504.609 248.655 502.965C248.711 502.574 249.058 502.243 249.311 501.819C251.191 504.424 254.299 505.223 255.836 508.299C256.593 509.814 255.366 511.268 256.865 512.691C261.366 516.966 263.952 522.813 267.261 528.061C268.019 529.264 268.657 530.704 268.253 532.177C265.461 542.347 259.866 551.032 255.801 560.533C252.915 567.278 247.959 572.906 249.202 581.268C249.943 582.531 250.986 582.934 252.275 582.636C252.149 579.975 250.081 577.236 251.151 574.815C255.027 566.041 259.116 557.371 263.466 548.873C264.807 546.253 266.335 543.786 267.221 540.9C267.907 538.665 268.277 536.065 269.6 534.377C271.535 531.909 273.781 535.166 276.039 535.244C281.319 535.427 286.347 536.898 290.031 541.79C290.544 542.472 291.597 543.017 292.408 543.067C299.228 543.486 304.707 548.168 310.773 550.795C318.875 554.305 326.697 558.777 335.14 561.187C337.859 561.964 338.647 562.775 338.242 565.545C337.682 569.368 338.814 571.391 342.881 572.545C345.851 573.387 348.415 575.66 351.809 574.577C353.072 574.174 354.746 575.177 355.295 576.426C356.352 578.836 357.788 578.593 359.667 578.325C360.935 578.144 362.732 578.195 363.583 579.01C367.572 582.836 373.068 583.218 377.145 586.66C379.535 588.679 380.265 587.877 380.211 585.055C380.164 582.609 380.69 580.28 380.561 577.731C380.277 572.099 386.721 567.723 391.877 569.57C393.314 570.084 394.209 569.727 395.011 568.743C396.062 567.455 397.516 567.507 398.876 567.032C402.243 565.857 406.403 567.848 409.176 564.391C409.614 563.845 410.499 564.03 411.269 564.381C416.054 566.565 421.031 568.323 425.601 570.955C428.722 572.752 428.691 571.078 428.186 568.999C427.501 566.179 427.374 563.884 429.057 561.363C430.488 559.221 430.363 557.315 426.865 556.405C422.02 555.145 418.118 548.201 418.44 542.913C418.554 541.047 417.951 539.711 416.429 538.376C414.631 536.799 413.486 535.061 414.301 531.743C415.372 527.384 417.953 523.182 416.494 518.104C416.114 516.782 417.146 515.562 418.603 515.767C421.974 516.243 423.033 513.336 424.778 511.341C427.294 508.466 429.059 504.761 432.584 502.989C434.709 501.92 434.473 500.059 433.863 498.09C433.403 496.604 432.982 495.919 431.022 495.39C428.088 494.598 425.378 495.365 422.61 494.825C421.721 494.651 420.714 494.297 420.758 493.073C420.809 491.647 421.918 491.888 422.757 492.086C425.286 492.683 427.921 494.665 429.978 491.302C431.469 488.865 433.655 486.954 434.194 483.819C434.694 480.915 431.093 474.52 428.762 474.595C427.834 474.625 426.938 475.888 426.037 474.39C425.069 472.782 426.032 471.769 426.737 470.54C428.509 467.454 430.803 464.616 429.812 460.311C429.494 458.935 429.887 456.056 431.083 456.179C435.982 456.683 441.45 453.311 445.749 458.963C446.366 459.774 447.539 461.367 448.721 459.9C451.384 456.598 455.175 455.246 458.816 454.589C462.876 453.856 466.916 450.677 471.057 452.821C474.937 454.829 478.748 455.168 482.511 454.501C488.152 453.501 491.774 459.897 497.186 459.143C497.276 459.131 497.473 459.675 497.59 459.973C498.748 462.917 501.385 465.985 497.204 468.455C496.496 468.873 496.484 469.811 496.889 470.597C498.341 473.422 496.993 474.523 494.967 476.181C491.783 478.785 487.885 479.314 484.458 479.476C480.426 479.668 479.839 482.294 478.989 484.918C478.138 487.542 480.182 488.98 482.135 490.079C482.889 490.503 484.154 490.477 483.887 491.798C483.535 493.547 482.26 492.581 481.339 492.369C475.759 491.091 476.586 491.326 475.661 497.266C475.148 500.561 474.269 503.151 474.964 506.841C475.41 509.205 475.745 511.564 477.407 512.218C481.492 513.828 483.385 518.128 486.29 520.858C490.789 525.086 495.791 526.668 500.652 527.692C505.009 528.61 507.844 530.746 510.035 534.106C511.236 535.945 512.06 536.747 513.876 536.153C515.073 535.761 516.36 536.354 517.54 535.093C521.026 531.366 523.254 531.631 527.611 534.821C531.693 537.811 535.246 542.487 541.287 539.367C544.482 537.716 548.367 537.883 551.63 541.187C557.143 546.768 563.285 546.145 569.631 543.785C574.083 542.13 575.91 544.217 575.627 549.421C575.435 552.958 575.843 556.644 580.447 557.345C582.147 557.604 583.615 559.043 581.475 560.354C579.078 561.823 577.23 565.122 573.501 563.443C571.96 562.75 569.728 562.816 569.213 564.693C568.24 568.24 564.497 570.722 565.931 575.131C566.524 576.956 567.992 577.118 569.645 577.091C574.18 577.018 578.434 575.901 582.442 573.901C585.303 572.474 588.305 571.936 590.888 574.122C594.019 576.773 596.19 575.72 598.048 573.075C599.858 570.499 601.96 570.501 604.688 571.208C608.611 572.225 612.598 572.45 616.532 574.039C618.838 574.97 622.199 574.552 624.222 571.829C624.867 570.96 625.905 569.858 626.802 570.349C629.919 572.056 632.63 570.472 635.488 569.96C638.506 569.42 641.619 570.428 643.971 571.96C645.501 572.956 643.483 575.987 643.234 578.141C643.089 579.396 643.238 580.7 643.171 581.974C643.113 583.067 643.283 584.555 642.113 584.872C637.682 586.073 634.963 591.108 629.676 590.589C628.325 590.456 625.59 590.275 625.628 593.067C625.669 596.094 624.096 595.577 622.428 595.113C621.06 594.732 619.768 594.878 618.455 595.202C614.549 596.166 611.318 599.327 606.809 598.531C605.426 598.287 605.763 599.691 606.346 600.938C607.298 602.973 609.925 603.852 609.858 606.435C609.754 610.425 612.1 609.631 613.508 608.348C616.471 605.648 616.467 607.939 616.827 610.246C617 611.356 617.054 612.794 617.707 613.475C622.775 618.765 618.695 625.762 621.405 631.575C622.392 633.692 622.715 637.588 624.977 636.499C629.338 634.4 634.683 634.772 638.259 631.038C639.631 629.606 640.769 630.292 640.942 631.437C641.474 634.954 644.157 637.227 645.16 640.403C646.266 639.517 647.372 638.63 648.478 637.743C648.479 637.743 648.479 637.743 648.479 637.742C645.147 636.85 641.706 631.54 642.601 628.181Z" fill="#FBFBFB"/>
<path d="M1065.27 649.289C1061.78 648.006 1058.51 646.057 1054.88 645.082C1053.9 644.821 1053.2 642.796 1051.6 643.732C1050.17 644.573 1050.43 645.994 1050.51 647.494C1050.79 652.593 1048.38 654.769 1043.95 653.684C1043.43 653.561 1042.75 653.664 1042.28 653.936C1038.58 656.125 1035.76 660.004 1030.14 657.556C1028.52 656.85 1025.45 662.541 1021.36 659.963C1021.31 659.977 1020.86 661.073 1020.43 661.409C1017.25 663.903 1012.67 663.909 1011.28 660.893C1010.17 658.473 1006.98 656.775 1008.4 653.074C1008.93 651.665 1007.31 650.642 1005.77 650.475C1005.11 650.403 1003.69 650.81 1003.88 650.163C1005.8 643.783 1002.26 643.501 997.993 643.597C997.316 643.613 996.546 642.515 995.854 641.879C991.713 638.085 986.702 637.672 981.756 637.255C979.426 637.056 977.016 637.844 977.139 640.91C977.255 643.733 975.783 643.424 974.131 643.593C970.249 644 965.923 643.132 963.247 647.338C963.033 647.685 962.054 647.825 961.665 647.588C960.765 647.046 961.134 646.097 961.616 645.562C963.241 643.739 964.107 641.444 965.077 639.201C966.574 635.724 967.888 632.108 972.559 632.636C973.898 632.786 974.562 631.45 974.854 630.157C976.723 621.864 969.987 616.284 968.352 609.082C968.29 608.82 967.584 608.605 967.156 608.524C963.653 607.854 964.413 605.646 966.403 604.761C970.206 603.064 968.897 599.219 969.294 596.522C969.637 594.177 966.472 593.83 964.459 593.33C963.892 593.185 963.239 593.01 962.82 592.609C958.546 588.604 951.75 587.566 947.572 590.519C946.461 591.302 945.472 591.849 944.411 590.799C943.35 589.75 944.209 588.581 944.778 587.819C946.768 585.173 946.458 582.818 944.393 580.168C940.293 574.88 939.675 562.611 943.322 557.155C947.305 551.208 950.417 544.951 952.504 537.787C953.713 533.642 956.184 528.411 960.419 527.35C966.921 525.723 967.394 519.975 967.987 515.262C968.546 510.862 968.917 506.16 968.812 501.634C968.738 498.456 968.31 493.974 965.504 492.336C963.099 490.932 963.137 489.664 963.034 487.573C962.489 476.595 958.682 470.94 949.719 467.604C949.382 468.604 949.039 469.606 948.702 470.607C950.655 470.499 952.835 471.551 954.751 473.108C956.666 474.664 958.316 476.72 959.228 478.629C961.799 484.04 958.278 491.701 965.206 495.417C965.545 495.601 965.472 496.633 965.678 497.241C967.246 501.879 965.794 506.397 965.899 510.944C966.066 518.035 965.13 523.658 958.107 525.929C956.677 526.391 956.051 528.061 955.064 529.203C951.338 533.508 949.826 539.088 948.018 544.393C945.608 551.441 939.951 556.642 939.332 564.718C938.91 570.188 938.073 575.818 941.569 580.315C943.599 582.928 944.42 584.529 942.744 587.312C941.792 588.895 940.951 590.958 942.944 592.462C944.734 593.813 946.845 594.552 948.57 592.359C949.996 590.561 951.914 591.118 953.79 590.851C958.319 590.198 960.766 594.589 964.506 595.654C967.339 596.458 968.55 599.686 966.278 601.054C963.512 602.722 962.974 604.899 962.708 607.774C962.592 608.995 959.72 609.075 961.28 610.975C962.511 612.471 964.212 612.349 965.724 611.144C966.676 610.382 967.902 611.058 967.456 612.014C965.691 615.792 968.814 617.176 970.481 619.042C973.052 621.912 972.485 625.315 972.852 628.595C972.994 629.849 972.308 630.49 971.334 630.391C967.682 630.017 965.643 632.754 964.527 635.425C963.064 638.934 961.598 638.154 959.171 636.829C949.501 631.557 939.612 628.38 928.998 632.062C925.457 633.295 923.473 630.65 921.13 627.933C917.514 623.745 914.941 617.526 908.438 617.572C905.204 617.593 901.634 620.196 899.255 615.364C899.216 615.281 898.923 615.231 898.83 615.295C895.536 617.576 892.288 615.072 889.042 614.693C884.612 614.177 881.502 615.642 879.037 619.7C877.656 621.976 876.67 625.805 874.015 625.928C867.465 626.237 861.442 630.685 854.388 627.657C852.632 626.906 851.579 624.994 849.811 624.881C841.898 624.364 834.002 620.169 826.057 623.599C825.018 624.046 824.377 623.331 823.692 622.681C822.635 621.67 821.538 621.94 820.328 622.219C813.754 623.732 803.142 619.167 799.857 612.405C797.568 607.708 794.793 608.564 792.261 610.171C788.909 612.301 785.145 611.586 781.7 612.674C775.986 614.481 771.087 610.386 765.793 609.186C758.905 607.623 752.195 605.035 745.825 610.208C744.44 611.34 741.758 612.225 740.389 611.513C736.677 609.593 733.09 610.599 729.445 610.25C726.592 609.981 726.389 611.291 726.137 613.726C725.66 618.257 726.667 623.377 721.939 626.366C719.845 627.694 721.101 630.441 721.651 632.615C722.452 633.388 723.238 633.37 724.024 633.167C724.537 633.035 725.053 632.822 725.565 632.709C724.288 632.331 723.265 631.689 722.938 630.423C722.86 630.119 722.822 629.784 722.828 629.406C722.857 627.803 723.787 626.299 725.003 626.183C729.318 625.757 728.643 622.417 728.403 619.487C727.875 613.138 731.44 609.622 736.675 612.572C741.346 615.197 744.616 612.493 748.352 611.448C749.378 611.163 750.213 610.114 751.576 609.742C758.545 607.829 764.873 611.482 771.144 613.476C778.693 615.88 785.467 615.891 792.373 612.631C793.901 611.912 796.266 609.984 797.439 612.573C798.913 615.832 802.065 616.692 803.868 619.271C810.002 628.031 819.159 625.811 826.375 625.138C834.239 624.404 841.796 625.449 848.933 627.411C854.639 628.981 859.574 631.783 865.835 630.232C871.953 628.718 877.505 627.509 880.948 621.073C883.535 616.222 895.629 615.725 899.753 619.55C901.223 620.911 903.201 622.756 905.151 621.577C909.025 619.233 911.028 619.623 914.094 623.139C916.647 626.06 919.502 628.638 921.82 631.871C923.616 634.379 926.381 635.2 929.154 634.173C939.808 630.242 949.551 633.986 959.256 639.183C961.683 640.482 960.711 641.706 960.266 643.35C959.686 645.505 958.586 645.67 956.929 644.595C954.967 643.329 952.97 642.184 950.613 642.19C949.605 642.192 948.862 642.563 948.545 643.571C948.18 644.745 948.961 645.463 949.806 645.794C952.592 646.887 955.004 649.401 958.191 648.962C960.186 648.685 962.214 652.112 963.924 649.605C966.948 645.171 971.347 645.682 975.58 645.86C977.761 645.951 978.658 645.164 978.766 643.091C978.968 639.286 981.295 638.691 984.046 639.463C987.676 640.478 991.636 640.54 994.65 643.666C996.766 645.86 999.24 646.941 1002.25 645.971C1000.74 653.251 1000.74 653.251 1006.15 652.926C1005.74 656.468 1009.18 663.274 1012.39 664.656C1013.87 665.294 1016.17 665.984 1017.13 665.245C1021.02 662.255 1027.38 665.775 1030.04 659.86C1030.42 659.027 1031.4 659.248 1032 659.796C1034.9 662.443 1036.94 660.3 1039.12 658.757C1041.19 657.29 1043.03 654.525 1045.92 657.789C1046.45 658.391 1047.38 658.006 1047.9 657.363C1050.41 654.207 1053.73 651.481 1052.39 646.234C1055.84 648.899 1060.69 647.865 1063.16 652.222C1063.25 652.378 1063.97 652.165 1064.39 652.077C1067.73 651.38 1066.98 654.81 1066.48 655.422C1063.77 658.723 1065.13 661.899 1065.98 665.552C1066.65 668.417 1068.9 672.382 1065.77 674.612C1061.58 677.609 1061.79 681.432 1062.96 685.87C1063.51 685.033 1064.05 684.19 1064.61 683.351C1064.46 682.992 1064.34 682.652 1064.26 682.324C1063.73 680.264 1064.45 678.746 1066.17 677.145C1068.61 674.873 1070.41 672.476 1068.67 667.841C1067.46 664.58 1064.76 660.229 1068.61 656.294C1070.24 654.628 1067.64 650.17 1065.27 649.289ZM954.137 645.105C955.264 645.092 956.097 645.585 956.94 647.035C955.431 646.961 954.327 647.015 954.137 645.105Z" fill="#FBFBFB"/>
<path d="M659.862 618.415C660.277 617.981 660.5 617.288 660.967 616.967C662.414 615.975 663.752 614.67 665.676 614.769C669.02 614.942 669.998 612.76 670.923 609.679C672.756 603.572 675.761 598.094 681.047 594.732C684.597 592.475 687.855 589.826 689.986 586.118C691.176 584.046 691.875 583.981 693.677 585.07C697.413 587.325 698.967 583.848 700.997 581.792C702.867 579.898 704.558 578.007 702.555 574.791C701.28 572.741 701.212 570.928 704.048 570.149C706.052 569.599 705.226 567.95 704.337 566.75C703.446 565.546 702.199 564.938 700.756 564.982C699.281 565.027 698.509 564.155 698.367 562.661C698.216 561.077 699.13 560.388 700.421 560.098C702.152 559.71 703.873 559.284 705.609 558.924C709.145 558.193 711.417 555.684 712.571 552.335C713.462 549.75 713.888 547.127 717.02 546.935C719.955 546.756 722.788 547.649 724.234 550.516C725.538 553.1 727.432 553.51 729.619 554.311C734.184 555.984 737.335 553.147 740.781 551.245C742.051 550.544 741.718 549.354 741.013 547.971C739.172 544.353 736.614 541.385 734.007 538.454C730.765 534.808 730.997 531.124 733.309 526.976C735.059 523.836 738.436 520.979 737.594 516.795C736.672 512.213 737.317 507.853 737.381 503.398C737.425 500.345 738.675 499.026 741.25 501.106C743.544 502.958 745.477 501.758 746.902 500.542C752.115 496.096 751.269 489.504 749.938 483.582C749.349 480.961 749.817 479.549 750.592 477.577C751.714 474.723 755.249 473.253 754.941 469.841C754.297 462.727 756.211 457.528 762.542 454.902C761.839 454.76 761.137 454.618 760.434 454.476C754.468 455.903 752.593 460.24 753.124 466.489C753.344 469.072 752.311 470.986 750.739 473.155C748.565 476.156 745.479 479.388 748.262 484.629C749.52 486.998 749.346 490.811 748.607 493.539C748.086 495.461 745.777 496.805 744.609 498.875C743.825 500.264 741.959 498.831 740.535 498.387C737.815 497.538 735.827 498.282 735.623 501.78C735.474 504.335 734.966 506.883 735.087 509.428C735.401 516.044 734.72 522.073 730.439 527.246C728.225 529.922 729.515 536.639 732.096 539.725C733.413 541.302 734.931 542.682 736.278 544.233C738.737 547.065 738.479 549.649 735.614 551.642C732.992 553.464 727.71 552.057 725.908 549.057C722.039 542.616 714.373 542.402 711.455 548.982C709.293 553.856 706.583 556.829 701.185 557.286C696.908 557.647 694.533 562.332 697.028 564.22C700.959 567.196 699.978 570.423 700.104 573.923C700.126 574.527 700.553 575.124 700.747 575.739C701.641 578.579 697.327 584.6 695.14 583.195C690.293 580.08 688.975 583.439 687.111 586.702C686.525 587.727 685.458 588.457 684.524 589.197C679.386 593.27 673.693 596.855 671.193 603.615C670.546 605.367 669.879 607.054 669.062 608.543C667.828 610.795 666.242 612.588 663.844 613.451C662.877 613.8 661.782 614.001 660.519 614.015C659.675 614.024 659.41 614.915 659.143 615.655C658.567 617.249 657.32 617.602 655.896 617.502C652.644 617.273 649.545 617.393 646.695 619.386C645.736 620.056 643.632 619.355 644.644 621.733C645.392 623.488 646.578 623.497 647.824 622.158C648.736 621.178 649.907 620.766 650.85 622.243C651.698 623.572 651.086 624.657 650.173 625.614C649.47 626.349 648.184 627.155 649.057 628.325C651.008 630.938 649.771 633.579 649.812 636.211C650.56 636.364 651.308 636.518 652.056 636.671L652.055 636.67C652.619 632.743 652.983 628.301 652.685 624.826C652.034 617.255 657.723 620.656 659.862 618.415Z" fill="white"/>
<path d="M225.688 318.594C227.826 315.198 230.905 316.975 233.381 317.541C235.861 318.108 238.192 319.885 236.317 323.486C235.59 324.882 238.345 333.011 239.613 333.794C242.572 335.62 246.857 333.342 247.403 329.403C247.605 327.949 247.304 326.769 249.053 326.144C252.963 324.745 256.689 322.88 260.35 320.841C262.62 319.576 265.911 317.7 267.771 319.853C270.85 323.418 273.696 323.088 276.93 321.681C280.378 320.18 282.29 322.561 282.033 325.3C281.627 329.622 285.144 335.392 279.137 338.122C278.195 338.55 278.116 339.987 278.253 341.156C278.933 346.942 277.424 352.578 277.759 358.285C278.107 364.207 282.904 371.908 290.558 368.736C292.744 367.831 293.932 368.913 294.955 370.725C296.461 373.392 296.557 376.355 296.16 379.177C295.725 382.261 296.129 384.572 298.46 386.953C301.701 390.262 301.312 398.643 298.213 401.261L298.211 401.262C298.65 401.525 299.089 401.787 299.528 402.049C301.823 401.922 303.066 400.668 302.87 398.133C302.647 395.258 303.185 391.718 301.812 389.648C298.235 384.256 298.772 378.385 297.898 372.595C297.167 367.755 293.917 365.477 290.346 366.453C284.139 368.151 279.405 363.959 279.675 357.067C279.861 352.312 281.137 347.667 280.205 342.791C279.84 340.883 280.544 339.315 282.389 338.707C284.035 338.163 284.734 336.934 284.655 335.133C284.508 331.787 284.526 328.42 284.113 325.099C283.32 318.717 282.097 317.83 276.461 319.763C273.687 320.715 271.411 320.956 269.365 318.091C268.143 316.379 266.837 316.423 264.74 316.886C258.65 318.228 253.748 322.167 248.036 324.25C246.144 324.939 244.23 325.885 245.099 329.081C245.547 330.727 244.553 332.052 242.607 332.053C240.962 332.054 240.667 331.259 240.111 329.613C239.191 326.887 237.296 324.527 239.101 321.511C239.354 321.088 238.813 319.972 238.474 319.263C236.461 315.054 229.263 312.947 225.713 315.58C224.757 316.289 223.944 317.665 222.682 316.991C218.477 314.745 213.821 315.849 209.567 314.16L209.567 314.161C209.071 314.576 208.576 314.992 208.081 315.409C212.81 318.362 218.327 317.037 223.218 319.248C223.884 319.551 225.317 319.184 225.688 318.594Z" fill="white"/>
<path d="M954.135 645.107C954.327 647.018 955.428 646.962 956.936 647.032C956.098 645.585 955.263 645.095 954.135 645.107Z" fill="#E4E4E4"/>
<path d="M185.022 307.964C185.14 309.502 184.499 310.336 184.499 310.336L152.581 316.742L153.158 315.825L154.312 313.985L155.913 311.433C156.132 309.643 154.799 307.426 153.034 305.347C150.093 301.864 145.96 298.782 145.96 298.782C139.461 297.152 140.208 292.988 140.208 292.988C134.279 291.21 135.187 287.667 135.187 287.667C135.187 287.667 131.929 289.17 132.018 287.162C132.107 285.153 128.938 284.648 128.938 284.648L124.789 285.058L123.899 283.965L120.89 284.08L119.447 278.496C119.447 278.496 115.388 276.898 114.426 273.175C113.464 269.453 111.025 269.421 111.025 269.421C110.046 270.336 107.197 271.072 107.197 271.072C107.197 271.072 106.539 273.227 105.15 274.91C103.761 276.592 101.687 276.797 101.206 274.936C100.726 273.074 102.524 270.624 102.524 270.624L104.642 269.415C105.141 266.639 107.42 266.05 107.42 266.05C109.378 264.221 112.138 265.493 112.138 265.493C112.458 266.734 115.788 267.86 115.788 267.86C118.225 265.953 122.973 270.828 123.319 271.182C123.213 271.031 122.648 270.111 124.886 270.142C127.325 270.174 136.566 277.714 136.566 277.714C136.317 279.102 139.967 281.468 139.967 281.468C142.086 280.259 143.297 282.593 143.297 282.593C147.355 279.811 148.728 282.772 149.006 283.567C149.097 283.425 149.569 283.23 151.345 283.162C154.354 283.046 157.434 285.56 157.434 285.56C157.345 287.568 158.645 287.894 158.645 287.894C159.873 285.591 167.031 285.066 169.221 286.486C170.254 287.155 171.052 287.443 171.609 287.561C172.042 287.653 172.336 288.097 172.272 288.562C172.032 290.311 172.693 292.869 172.693 292.869C176.023 293.994 173.494 295.971 173.494 295.971L178.605 299.284C183.614 303.099 184.89 306.065 185.022 307.964Z" fill="#FF6B6B"/>
</g>
<defs>
<clipPath id="clip0_24_12">
<rect width="1129.66" height="691.969" fill="white" transform="translate(0 282.598) rotate(-14.4851)"/>
</clipPath>
</defs>
</svg>
